<svg width="323" height="252" viewBox="0 0 323 252" fill="none" xmlns="http://www.w3.org/2000/svg">
<g clip-path="url(#clip0)">
<g filter="url(#filter0_d)">
<path d="M284 6H39C22.4315 6 9 19.4315 9 36V210C9 226.569 22.4315 240 39 240H284C300.569 240 314 226.569 314 210V36C314 19.4315 300.569 6 284 6Z" fill="white"/>
</g>
<g opacity="0.3">
<g opacity="0.3">
<path opacity="0.3" d="M290.358 205.627C286.931 207.374 285.57 211.568 287.316 214.994C289.063 218.421 293.257 219.783 296.684 218.036C300.11 216.289 301.472 212.095 299.725 208.668C297.978 205.242 293.784 203.88 290.358 205.627Z" fill="#6E6B6B"/>
<path opacity="0.3" d="M190.356 210.526C187.697 211.881 186.641 215.136 187.996 217.795C189.352 220.454 192.606 221.511 195.266 220.155C197.925 218.8 198.982 215.545 197.626 212.886C196.27 210.227 193.016 209.17 190.356 210.526Z" fill="white"/>
<path opacity="0.3" d="M61.6823 149.726C59.4981 150.84 58.6302 153.513 59.7437 155.697C60.8571 157.881 63.5304 158.749 65.7145 157.636C67.8987 156.522 68.7666 153.849 67.6532 151.665C66.5397 149.481 63.8665 148.613 61.6823 149.726Z" fill="#6E6B6B"/>
<path opacity="0.3" d="M143.455 46.4944C141.55 47.4656 140.793 49.7972 141.764 51.7023C142.736 53.6073 145.067 54.3644 146.972 53.3932C148.877 52.422 149.634 50.0904 148.663 48.1853C147.692 46.2803 145.36 45.5232 143.455 46.4944Z" fill="white"/>
<path opacity="0.3" d="M176.797 125.172C175.853 125.653 175.478 126.809 175.959 127.753C176.44 128.697 177.596 129.072 178.54 128.591C179.484 128.11 179.859 126.954 179.378 126.01C178.897 125.066 177.741 124.691 176.797 125.172Z" fill="#6E6B6B"/>
<path opacity="0.3" d="M236.285 180.327C235.34 180.808 234.965 181.964 235.447 182.908C235.928 183.852 237.083 184.227 238.028 183.746C238.972 183.264 239.347 182.109 238.866 181.165C238.384 180.221 237.229 179.845 236.285 180.327Z" fill="#6E6B6B"/>
<path opacity="0.3" d="M90.2897 87.3507C88.3847 88.3219 87.6276 90.6535 88.5988 92.5586C89.57 94.4636 91.9016 95.2207 93.8067 94.2495C95.7117 93.2783 96.4687 90.9467 95.4976 89.0416C94.5264 87.1366 92.1948 86.3795 90.2897 87.3507Z" fill="white"/>
<path opacity="0.3" d="M150.701 150.588C149.757 151.069 149.382 152.225 149.863 153.169C150.344 154.113 151.5 154.488 152.444 154.007C153.388 153.525 153.764 152.37 153.282 151.426C152.801 150.482 151.645 150.106 150.701 150.588Z" fill="#6E6B6B"/>
<path opacity="0.3" d="M265.037 38.0307C263.132 39.0018 262.375 41.3335 263.347 43.2385C264.318 45.1435 266.649 45.9006 268.554 44.9294C270.459 43.9582 271.216 41.6266 270.245 39.7216C269.274 37.8165 266.942 37.0595 265.037 38.0307Z" fill="white"/>
<path opacity="0.3" d="M231.295 64.9726C228.066 66.6186 226.783 70.5703 228.429 73.799C230.075 77.0277 234.027 78.3108 237.256 76.6648C240.484 75.0189 241.767 71.0671 240.121 67.8384C238.475 64.6097 234.524 63.3266 231.295 64.9726Z" fill="white"/>
</g>
<g opacity="0.3">
<path opacity="0.3" d="M89.9179 167.269C87.4729 165.557 84.1032 166.151 82.3914 168.596C80.6797 171.041 81.2741 174.411 83.7191 176.123C86.1641 177.834 89.5338 177.24 91.2455 174.795C92.9573 172.35 92.3629 168.98 89.9179 167.269Z" fill="#6E6B6B"/>
<path opacity="0.3" d="M83.1784 25.0545C81.1702 23.6486 78.4024 24.1368 76.9965 26.145C75.5905 28.1533 76.0787 30.921 78.087 32.327C80.0952 33.7329 82.8629 33.2447 84.2689 31.2365C85.6749 29.2282 85.1866 26.4605 83.1784 25.0545Z" fill="white"/>
<path opacity="0.3" d="M212.771 48.7909C211.019 47.5646 208.605 47.9905 207.379 49.7421C206.152 51.4937 206.578 53.9077 208.33 55.134C210.082 56.3603 212.496 55.9345 213.722 54.1829C214.948 52.4313 214.522 50.0172 212.771 48.7909Z" fill="#6E6B6B"/>
<path opacity="0.3" d="M158.938 115.195C158.07 114.587 156.874 114.798 156.266 115.667C155.658 116.535 155.869 117.731 156.737 118.339C157.606 118.947 158.802 118.736 159.41 117.867C160.017 116.999 159.806 115.803 158.938 115.195Z" fill="white"/>
<path opacity="0.3" d="M138.164 193.647C137.296 193.039 136.1 193.25 135.492 194.118C134.884 194.986 135.095 196.183 135.964 196.79C136.832 197.398 138.028 197.187 138.636 196.319C139.244 195.451 139.033 194.254 138.164 193.647Z" fill="white"/>
<path opacity="0.3" d="M151.711 21.0233C149.96 19.797 147.546 20.2229 146.319 21.9745C145.093 23.7261 145.519 26.1401 147.27 27.3664C149.022 28.5927 151.436 28.1669 152.662 26.4153C153.889 24.6637 153.463 22.2496 151.711 21.0233Z" fill="#6E6B6B"/>
<path opacity="0.3" d="M124.232 104.084C123.363 103.477 122.167 103.688 121.559 104.556C120.951 105.424 121.162 106.62 122.031 107.228C122.899 107.836 124.095 107.625 124.703 106.757C125.311 105.889 125.1 104.692 124.232 104.084Z" fill="white"/>
<path opacity="0.3" d="M277.356 152.205C275.605 150.979 273.191 151.405 271.964 153.156C270.738 154.908 271.164 157.322 272.916 158.548C274.667 159.775 277.081 159.349 278.307 157.597C279.534 155.846 279.108 153.432 277.356 152.205Z" fill="#6E6B6B"/>
<path opacity="0.3" d="M237.711 135.061C234.742 132.982 230.651 133.704 228.572 136.673C226.494 139.641 227.216 143.733 230.184 145.811C233.153 147.889 237.244 147.168 239.323 144.199C241.401 141.23 240.679 137.139 237.711 135.061Z" fill="#6E6B6B"/>
<path opacity="0.3" d="M33.9687 183.197C31.8732 181.73 28.985 182.239 27.5179 184.335C26.0508 186.43 26.5603 189.318 28.6558 190.786C30.7514 192.253 33.6396 191.743 35.1067 189.648C36.5738 187.552 36.0643 184.664 33.9687 183.197Z" fill="white"/>
</g>
</g>
<path d="M46.546 169.679H313.998" stroke="#707070" stroke-width="0.1"/>
<path d="M46.546 136.188H313.998" stroke="#212121" stroke-width="0.1"/>
<path d="M46.546 102.697H313.998" stroke="#212121" stroke-width="0.1"/>
<path d="M46.546 69.206H313.998" stroke="#212121" stroke-width="0.1"/>
<path d="M46.546 35.714H313.998" stroke="#212121" stroke-width="0.1"/>
<path d="M46.539 157.547C73.857 130.547 91.89 125.833 103.804 127.688C125.755 131.088 132.168 155.297 149.181 153.922C163.481 152.776 177.223 133.21 182.536 123V122.979C200.836 82.284 213.423 72.97 222.01 73.512C229.282 73.971 240.794 86.264 263.791 110.852C270.553 118.061 276.191 124.271 282.012 123.52C289.07 122.62 292.155 112.12 293.148 108.059C293.363 106.746 294.409 100.954 301.198 96.682C305.085 94.363 309.478 93.0245 313.998 92.782" stroke="#34A853" stroke-width="4"/>
<path opacity="0.7" d="M32.023 195C31.6683 195 31.365 194.893 31.113 194.678C30.8657 194.459 30.6767 194.146 30.546 193.74C30.4153 193.329 30.35 192.837 30.35 192.263C30.35 191.689 30.4153 191.199 30.546 190.793C30.6767 190.382 30.8657 190.07 31.113 189.855C31.365 189.636 31.6683 189.526 32.023 189.526C32.3777 189.526 32.6787 189.638 32.926 189.862C33.178 190.081 33.3693 190.396 33.5 190.807C33.6307 191.213 33.696 191.698 33.696 192.263C33.696 192.828 33.6307 193.315 33.5 193.726C33.3693 194.132 33.178 194.447 32.926 194.671C32.6787 194.89 32.3777 195 32.023 195ZM32.023 194.272C32.2377 194.272 32.415 194.186 32.555 194.013C32.695 193.836 32.8 193.595 32.87 193.292C32.94 192.989 32.975 192.646 32.975 192.263C32.975 191.88 32.94 191.537 32.87 191.234C32.8 190.931 32.695 190.69 32.555 190.513C32.415 190.336 32.2377 190.247 32.023 190.247C31.8083 190.247 31.631 190.336 31.491 190.513C31.351 190.686 31.246 190.924 31.176 191.227C31.106 191.53 31.071 191.876 31.071 192.263C31.071 192.65 31.106 192.996 31.176 193.299C31.246 193.602 31.351 193.84 31.491 194.013C31.6357 194.186 31.813 194.272 32.023 194.272Z" fill="#292929"/>
<path opacity="0.7" d="M63.812 216C63.7093 216 63.623 215.965 63.553 215.895C63.4877 215.825 63.455 215.741 63.455 215.643C63.455 215.54 63.4877 215.456 63.553 215.391L65.541 213.067C65.681 212.904 65.7883 212.75 65.863 212.605C65.9423 212.46 65.982 212.323 65.982 212.192C65.982 211.987 65.947 211.809 65.877 211.66C65.807 211.511 65.7067 211.396 65.576 211.317C65.4453 211.233 65.289 211.191 65.107 211.191C64.9297 211.191 64.7687 211.238 64.624 211.331C64.484 211.42 64.372 211.541 64.288 211.695C64.2087 211.844 64.169 212.01 64.169 212.192C64.169 212.285 64.134 212.367 64.064 212.437C63.9987 212.507 63.9147 212.542 63.812 212.542C63.714 212.542 63.63 212.507 63.56 212.437C63.49 212.367 63.455 212.285 63.455 212.192C63.455 211.875 63.5273 211.592 63.672 211.345C63.8167 211.093 64.0127 210.895 64.26 210.75C64.512 210.605 64.7943 210.533 65.107 210.533C65.4243 210.533 65.6997 210.601 65.933 210.736C66.1663 210.871 66.346 211.063 66.472 211.31C66.6027 211.557 66.668 211.851 66.668 212.192C66.668 212.341 66.6353 212.493 66.57 212.647C66.5093 212.801 66.43 212.948 66.332 213.088C66.2387 213.228 66.143 213.354 66.045 213.466L64.442 215.286H66.402C66.5047 215.286 66.591 215.323 66.661 215.398C66.731 215.468 66.766 215.55 66.766 215.643C66.766 215.741 66.731 215.825 66.661 215.895C66.591 215.965 66.5047 216 66.402 216H63.812ZM68.1162 216C68.0229 216 67.9412 215.965 67.8712 215.895C67.8012 215.825 67.7662 215.741 67.7662 215.643C67.7662 215.606 67.7709 215.571 67.7802 215.538C67.7942 215.501 67.8106 215.461 67.8292 215.419L69.8382 211.247H67.7102C67.6076 211.247 67.5212 211.214 67.4512 211.149C67.3859 211.079 67.3532 210.993 67.3532 210.89C67.3532 210.787 67.3859 210.703 67.4512 210.638C67.5212 210.568 67.6076 210.533 67.7102 210.533H70.3772C70.4752 210.533 70.5592 210.568 70.6292 210.638C70.6992 210.708 70.7342 210.792 70.7342 210.89C70.7342 210.923 70.7296 210.955 70.7202 210.988C70.7109 211.016 70.6992 211.046 70.6852 211.079L68.4452 215.804C68.3706 215.935 68.2609 216 68.1162 216Z" fill="#292929"/>
<path opacity="0.7" d="M110.812 216C110.709 216 110.623 215.965 110.553 215.895C110.488 215.825 110.455 215.741 110.455 215.643C110.455 215.54 110.488 215.456 110.553 215.391L112.541 213.067C112.681 212.904 112.788 212.75 112.863 212.605C112.942 212.46 112.982 212.323 112.982 212.192C112.982 211.987 112.947 211.809 112.877 211.66C112.807 211.511 112.707 211.396 112.576 211.317C112.445 211.233 112.289 211.191 112.107 211.191C111.93 211.191 111.769 211.238 111.624 211.331C111.484 211.42 111.372 211.541 111.288 211.695C111.209 211.844 111.169 212.01 111.169 212.192C111.169 212.285 111.134 212.367 111.064 212.437C110.999 212.507 110.915 212.542 110.812 212.542C110.714 212.542 110.63 212.507 110.56 212.437C110.49 212.367 110.455 212.285 110.455 212.192C110.455 211.875 110.527 211.592 110.672 211.345C110.817 211.093 111.013 210.895 111.26 210.75C111.512 210.605 111.794 210.533 112.107 210.533C112.424 210.533 112.7 210.601 112.933 210.736C113.166 210.871 113.346 211.063 113.472 211.31C113.603 211.557 113.668 211.851 113.668 212.192C113.668 212.341 113.635 212.493 113.57 212.647C113.509 212.801 113.43 212.948 113.332 213.088C113.239 213.228 113.143 213.354 113.045 213.466L111.442 215.286H113.402C113.505 215.286 113.591 215.323 113.661 215.398C113.731 215.468 113.766 215.55 113.766 215.643C113.766 215.741 113.731 215.825 113.661 215.895C113.591 215.965 113.505 216 113.402 216H110.812ZM116.152 215.993C115.844 215.993 115.567 215.921 115.319 215.776C115.077 215.627 114.885 215.426 114.745 215.174C114.605 214.917 114.535 214.63 114.535 214.313C114.535 214.005 114.605 213.73 114.745 213.487C114.885 213.24 115.077 213.046 115.319 212.906C115.567 212.766 115.844 212.696 116.152 212.696C116.46 212.696 116.736 212.766 116.978 212.906C117.221 213.046 117.412 213.24 117.552 213.487C117.697 213.73 117.767 214.005 117.762 214.313C117.762 214.63 117.69 214.917 117.545 215.174C117.405 215.426 117.214 215.627 116.971 215.776C116.729 215.921 116.456 215.993 116.152 215.993ZM116.152 215.349C116.325 215.349 116.479 215.302 116.614 215.209C116.754 215.116 116.864 214.992 116.943 214.838C117.023 214.679 117.062 214.504 117.062 214.313C117.067 214.126 117.03 213.961 116.95 213.816C116.871 213.667 116.761 213.55 116.621 213.466C116.486 213.377 116.33 213.333 116.152 213.333C115.98 213.333 115.823 213.377 115.683 213.466C115.543 213.55 115.434 213.667 115.354 213.816C115.275 213.961 115.235 214.126 115.235 214.313C115.235 214.504 115.273 214.679 115.347 214.838C115.427 214.992 115.536 215.116 115.676 215.209C115.816 215.302 115.975 215.349 116.152 215.349ZM116.152 213.207C115.886 213.207 115.648 213.149 115.438 213.032C115.233 212.915 115.07 212.759 114.948 212.563C114.827 212.362 114.766 212.136 114.766 211.884C114.766 211.618 114.827 211.382 114.948 211.177C115.07 210.967 115.233 210.801 115.438 210.68C115.648 210.554 115.886 210.491 116.152 210.491C116.418 210.486 116.654 210.545 116.859 210.666C117.069 210.787 117.235 210.953 117.356 211.163C117.478 211.373 117.536 211.613 117.531 211.884C117.531 212.136 117.471 212.362 117.349 212.563C117.228 212.759 117.062 212.915 116.852 213.032C116.647 213.149 116.414 213.207 116.152 213.207ZM116.152 212.626C116.283 212.626 116.4 212.591 116.502 212.521C116.605 212.451 116.687 212.36 116.747 212.248C116.808 212.131 116.838 212.003 116.838 211.863C116.843 211.723 116.815 211.599 116.754 211.492C116.694 211.385 116.612 211.301 116.509 211.24C116.407 211.175 116.288 211.142 116.152 211.142C115.956 211.142 115.793 211.21 115.662 211.345C115.532 211.48 115.464 211.653 115.459 211.863C115.455 212.073 115.518 212.253 115.648 212.402C115.784 212.551 115.952 212.626 116.152 212.626Z" fill="#292929"/>
<path opacity="0.7" d="M157.687 216C157.594 216 157.512 215.965 157.442 215.895C157.372 215.825 157.337 215.741 157.337 215.643V211.373L156.826 211.59C156.747 211.623 156.672 211.639 156.602 211.639C156.499 211.639 156.413 211.606 156.343 211.541C156.278 211.476 156.245 211.392 156.245 211.289C156.245 211.214 156.264 211.147 156.301 211.086C156.338 211.025 156.397 210.981 156.476 210.953L157.568 210.561C157.591 210.552 157.615 210.545 157.638 210.54C157.661 210.535 157.682 210.533 157.701 210.533C157.808 210.533 157.892 210.568 157.953 210.638C158.018 210.703 158.051 210.79 158.051 210.897V215.643C158.051 215.741 158.016 215.825 157.946 215.895C157.876 215.965 157.79 216 157.687 216Z" fill="#292929"/>
<path opacity="0.7" d="M202.812 216C202.709 216 202.623 215.965 202.553 215.895C202.488 215.825 202.455 215.741 202.455 215.643C202.455 215.54 202.488 215.456 202.553 215.391L204.541 213.067C204.681 212.904 204.788 212.75 204.863 212.605C204.942 212.46 204.982 212.323 204.982 212.192C204.982 211.987 204.947 211.809 204.877 211.66C204.807 211.511 204.707 211.396 204.576 211.317C204.445 211.233 204.289 211.191 204.107 211.191C203.93 211.191 203.769 211.238 203.624 211.331C203.484 211.42 203.372 211.541 203.288 211.695C203.209 211.844 203.169 212.01 203.169 212.192C203.169 212.285 203.134 212.367 203.064 212.437C202.999 212.507 202.915 212.542 202.812 212.542C202.714 212.542 202.63 212.507 202.56 212.437C202.49 212.367 202.455 212.285 202.455 212.192C202.455 211.875 202.527 211.592 202.672 211.345C202.817 211.093 203.013 210.895 203.26 210.75C203.512 210.605 203.794 210.533 204.107 210.533C204.424 210.533 204.7 210.601 204.933 210.736C205.166 210.871 205.346 211.063 205.472 211.31C205.603 211.557 205.668 211.851 205.668 212.192C205.668 212.341 205.635 212.493 205.57 212.647C205.509 212.801 205.43 212.948 205.332 213.088C205.239 213.228 205.143 213.354 205.045 213.466L203.442 215.286H205.402C205.505 215.286 205.591 215.323 205.661 215.398C205.731 215.468 205.766 215.55 205.766 215.643C205.766 215.741 205.731 215.825 205.661 215.895C205.591 215.965 205.505 216 205.402 216H202.812Z" fill="#292929"/>
<path opacity="0.7" d="M248.184 216C247.834 216 247.524 215.928 247.253 215.783C246.982 215.634 246.77 215.433 246.616 215.181C246.462 214.924 246.385 214.637 246.385 214.32C246.385 214.213 246.415 214.126 246.476 214.061C246.541 213.991 246.618 213.956 246.707 213.956C246.8 213.956 246.877 213.991 246.938 214.061C246.999 214.126 247.029 214.213 247.029 214.32C247.029 214.511 247.078 214.689 247.176 214.852C247.274 215.011 247.407 215.139 247.575 215.237C247.743 215.33 247.932 215.377 248.142 215.377C248.45 215.377 248.697 215.293 248.884 215.125C249.075 214.952 249.171 214.712 249.171 214.404C249.171 214.208 249.129 214.033 249.045 213.879C248.961 213.72 248.847 213.594 248.702 213.501C248.557 213.408 248.394 213.361 248.212 213.361C248.109 213.361 248.023 213.326 247.953 213.256C247.888 213.186 247.855 213.1 247.855 212.997C247.855 212.894 247.888 212.81 247.953 212.745C248.023 212.675 248.109 212.64 248.212 212.64C248.343 212.64 248.469 212.607 248.59 212.542C248.711 212.472 248.812 212.381 248.891 212.269C248.97 212.152 249.01 212.022 249.01 211.877C249.01 211.672 248.935 211.499 248.786 211.359C248.637 211.219 248.445 211.149 248.212 211.149C248.035 211.149 247.871 211.184 247.722 211.254C247.577 211.324 247.461 211.417 247.372 211.534C247.288 211.651 247.246 211.781 247.246 211.926C247.246 212.033 247.216 212.124 247.155 212.199C247.094 212.269 247.017 212.304 246.924 212.304C246.835 212.304 246.758 212.271 246.693 212.206C246.632 212.136 246.602 212.05 246.602 211.947C246.602 211.676 246.672 211.434 246.812 211.219C246.952 211.004 247.143 210.836 247.386 210.715C247.629 210.589 247.899 210.526 248.198 210.526C248.473 210.526 248.721 210.587 248.94 210.708C249.164 210.825 249.339 210.986 249.465 211.191C249.596 211.392 249.661 211.62 249.661 211.877C249.661 212.059 249.619 212.22 249.535 212.36C249.456 212.5 249.353 212.621 249.227 212.724C249.101 212.822 248.968 212.904 248.828 212.969C249.075 213.053 249.276 213.167 249.43 213.312C249.584 213.452 249.696 213.615 249.766 213.802C249.841 213.989 249.878 214.192 249.878 214.411C249.878 214.714 249.801 214.987 249.647 215.23C249.493 215.468 249.288 215.657 249.031 215.797C248.774 215.932 248.492 216 248.184 216Z" fill="#292929"/>
<path opacity="0.19" d="M314 92.786V204.286H46.539V157.547C73.857 130.547 91.89 125.833 103.804 127.688C125.755 131.088 132.168 155.297 149.181 153.922C163.481 152.776 177.223 133.21 182.536 123V122.979C200.836 82.284 213.423 72.97 222.01 73.512C229.282 73.971 240.794 86.264 263.791 110.852C270.553 118.061 276.191 124.271 282.012 123.52C289.07 122.62 292.155 112.12 293.148 108.059C293.363 106.746 294.409 100.954 301.198 96.682C305.086 94.3641 309.48 93.0269 314 92.786Z" fill="#00FF11"/>
<path opacity="0.7" d="M296.164 216C296.071 216 295.991 215.965 295.926 215.895C295.861 215.825 295.828 215.741 295.828 215.643V214.761H293.497C293.39 214.761 293.306 214.728 293.245 214.663C293.184 214.598 293.149 214.523 293.14 214.439C293.135 214.35 293.159 214.271 293.21 214.201L295.891 210.687C295.928 210.64 295.97 210.603 296.017 210.575C296.068 210.547 296.124 210.533 296.185 210.533C296.283 210.533 296.362 210.568 296.423 210.638C296.484 210.708 296.514 210.794 296.514 210.897V214.117H296.934C297.032 214.117 297.116 214.14 297.186 214.187C297.256 214.234 297.291 214.318 297.291 214.439C297.291 214.528 297.256 214.605 297.186 214.67C297.116 214.731 297.032 214.761 296.934 214.761H296.514V215.643C296.514 215.741 296.481 215.825 296.416 215.895C296.351 215.965 296.267 216 296.164 216ZM293.917 214.313L293.728 214.117H295.828V211.233L296.045 211.513L293.917 214.313Z" fill="#292929"/>
<path opacity="0.7" d="M22.687 165C22.5937 165 22.512 164.965 22.442 164.895C22.372 164.825 22.337 164.741 22.337 164.643V160.373L21.826 160.59C21.7467 160.623 21.672 160.639 21.602 160.639C21.4993 160.639 21.413 160.606 21.343 160.541C21.2777 160.476 21.245 160.392 21.245 160.289C21.245 160.214 21.2637 160.147 21.301 160.086C21.3383 160.025 21.3967 159.981 21.476 159.953L22.568 159.561C22.5913 159.552 22.6147 159.545 22.638 159.54C22.6613 159.535 22.6823 159.533 22.701 159.533C22.8083 159.533 22.8923 159.568 22.953 159.638C23.0183 159.703 23.051 159.79 23.051 159.897V164.643C23.051 164.741 23.016 164.825 22.946 164.895C22.876 164.965 22.7897 165 22.687 165ZM25.771 165C25.4164 165 25.113 164.893 24.861 164.678C24.6137 164.459 24.4247 164.146 24.294 163.74C24.1634 163.329 24.098 162.837 24.098 162.263C24.098 161.689 24.1634 161.199 24.294 160.793C24.4247 160.382 24.6137 160.07 24.861 159.855C25.113 159.636 25.4164 159.526 25.771 159.526C26.1257 159.526 26.4267 159.638 26.674 159.862C26.926 160.081 27.1174 160.396 27.248 160.807C27.3787 161.213 27.444 161.698 27.444 162.263C27.444 162.828 27.3787 163.315 27.248 163.726C27.1174 164.132 26.926 164.447 26.674 164.671C26.4267 164.89 26.1257 165 25.771 165ZM25.771 164.272C25.9857 164.272 26.163 164.186 26.303 164.013C26.443 163.836 26.548 163.595 26.618 163.292C26.688 162.989 26.723 162.646 26.723 162.263C26.723 161.88 26.688 161.537 26.618 161.234C26.548 160.931 26.443 160.69 26.303 160.513C26.163 160.336 25.9857 160.247 25.771 160.247C25.5564 160.247 25.379 160.336 25.239 160.513C25.099 160.686 24.994 160.924 24.924 161.227C24.854 161.53 24.819 161.876 24.819 162.263C24.819 162.65 24.854 162.996 24.924 163.299C24.994 163.602 25.099 163.84 25.239 164.013C25.3837 164.186 25.561 164.272 25.771 164.272ZM29.8179 165C29.4633 165 29.1599 164.893 28.9079 164.678C28.6606 164.459 28.4716 164.146 28.3409 163.74C28.2103 163.329 28.1449 162.837 28.1449 162.263C28.1449 161.689 28.2103 161.199 28.3409 160.793C28.4716 160.382 28.6606 160.07 28.9079 159.855C29.1599 159.636 29.4633 159.526 29.8179 159.526C30.1726 159.526 30.4736 159.638 30.7209 159.862C30.9729 160.081 31.1643 160.396 31.2949 160.807C31.4256 161.213 31.4909 161.698 31.4909 162.263C31.4909 162.828 31.4256 163.315 31.2949 163.726C31.1643 164.132 30.9729 164.447 30.7209 164.671C30.4736 164.89 30.1726 165 29.8179 165ZM29.8179 164.272C30.0326 164.272 30.2099 164.186 30.3499 164.013C30.4899 163.836 30.5949 163.595 30.6649 163.292C30.7349 162.989 30.7699 162.646 30.7699 162.263C30.7699 161.88 30.7349 161.537 30.6649 161.234C30.5949 160.931 30.4899 160.69 30.3499 160.513C30.2099 160.336 30.0326 160.247 29.8179 160.247C29.6033 160.247 29.4259 160.336 29.2859 160.513C29.1459 160.686 29.0409 160.924 28.9709 161.227C28.9009 161.53 28.8659 161.876 28.8659 162.263C28.8659 162.65 28.9009 162.996 28.9709 163.299C29.0409 163.602 29.1459 163.84 29.2859 164.013C29.4306 164.186 29.6079 164.272 29.8179 164.272Z" fill="#292929"/>
<path opacity="0.7" d="M21.812 129C21.7093 129 21.623 128.965 21.553 128.895C21.4877 128.825 21.455 128.741 21.455 128.643C21.455 128.54 21.4877 128.456 21.553 128.391L23.541 126.067C23.681 125.904 23.7883 125.75 23.863 125.605C23.9423 125.46 23.982 125.323 23.982 125.192C23.982 124.987 23.947 124.809 23.877 124.66C23.807 124.511 23.7067 124.396 23.576 124.317C23.4453 124.233 23.289 124.191 23.107 124.191C22.9297 124.191 22.7687 124.238 22.624 124.331C22.484 124.42 22.372 124.541 22.288 124.695C22.2087 124.844 22.169 125.01 22.169 125.192C22.169 125.285 22.134 125.367 22.064 125.437C21.9987 125.507 21.9147 125.542 21.812 125.542C21.714 125.542 21.63 125.507 21.56 125.437C21.49 125.367 21.455 125.285 21.455 125.192C21.455 124.875 21.5273 124.592 21.672 124.345C21.8167 124.093 22.0127 123.895 22.26 123.75C22.512 123.605 22.7943 123.533 23.107 123.533C23.4243 123.533 23.6997 123.601 23.933 123.736C24.1663 123.871 24.346 124.063 24.472 124.31C24.6027 124.557 24.668 124.851 24.668 125.192C24.668 125.341 24.6353 125.493 24.57 125.647C24.5093 125.801 24.43 125.948 24.332 126.088C24.2387 126.228 24.143 126.354 24.045 126.466L22.442 128.286H24.402C24.5047 128.286 24.591 128.323 24.661 128.398C24.731 128.468 24.766 128.55 24.766 128.643C24.766 128.741 24.731 128.825 24.661 128.895C24.591 128.965 24.5047 129 24.402 129H21.812ZM27.1382 129C26.7836 129 26.4802 128.893 26.2282 128.678C25.9809 128.459 25.7919 128.146 25.6612 127.74C25.5306 127.329 25.4652 126.837 25.4652 126.263C25.4652 125.689 25.5306 125.199 25.6612 124.793C25.7919 124.382 25.9809 124.07 26.2282 123.855C26.4802 123.636 26.7836 123.526 27.1382 123.526C27.4929 123.526 27.7939 123.638 28.0412 123.862C28.2932 124.081 28.4846 124.396 28.6152 124.807C28.7459 125.213 28.8112 125.698 28.8112 126.263C28.8112 126.828 28.7459 127.315 28.6152 127.726C28.4846 128.132 28.2932 128.447 28.0412 128.671C27.7939 128.89 27.4929 129 27.1382 129ZM27.1382 128.272C27.3529 128.272 27.5302 128.186 27.6702 128.013C27.8102 127.836 27.9152 127.595 27.9852 127.292C28.0552 126.989 28.0902 126.646 28.0902 126.263C28.0902 125.88 28.0552 125.537 27.9852 125.234C27.9152 124.931 27.8102 124.69 27.6702 124.513C27.5302 124.336 27.3529 124.247 27.1382 124.247C26.9236 124.247 26.7462 124.336 26.6062 124.513C26.4662 124.686 26.3612 124.924 26.2912 125.227C26.2212 125.53 26.1862 125.876 26.1862 126.263C26.1862 126.65 26.2212 126.996 26.2912 127.299C26.3612 127.602 26.4662 127.84 26.6062 128.013C26.7509 128.186 26.9282 128.272 27.1382 128.272ZM31.1851 129C30.8304 129 30.5271 128.893 30.2751 128.678C30.0278 128.459 29.8388 128.146 29.7081 127.74C29.5774 127.329 29.5121 126.837 29.5121 126.263C29.5121 125.689 29.5774 125.199 29.7081 124.793C29.8388 124.382 30.0278 124.07 30.2751 123.855C30.5271 123.636 30.8304 123.526 31.1851 123.526C31.5398 123.526 31.8408 123.638 32.0881 123.862C32.3401 124.081 32.5314 124.396 32.6621 124.807C32.7928 125.213 32.8581 125.698 32.8581 126.263C32.8581 126.828 32.7928 127.315 32.6621 127.726C32.5314 128.132 32.3401 128.447 32.0881 128.671C31.8408 128.89 31.5398 129 31.1851 129ZM31.1851 128.272C31.3998 128.272 31.5771 128.186 31.7171 128.013C31.8571 127.836 31.9621 127.595 32.0321 127.292C32.1021 126.989 32.1371 126.646 32.1371 126.263C32.1371 125.88 32.1021 125.537 32.0321 125.234C31.9621 124.931 31.8571 124.69 31.7171 124.513C31.5771 124.336 31.3998 124.247 31.1851 124.247C30.9704 124.247 30.7931 124.336 30.6531 124.513C30.5131 124.686 30.4081 124.924 30.3381 125.227C30.2681 125.53 30.2331 125.876 30.2331 126.263C30.2331 126.65 30.2681 126.996 30.3381 127.299C30.4081 127.602 30.5131 127.84 30.6531 128.013C30.7978 128.186 30.9751 128.272 31.1851 128.272Z" fill="#292929"/>
<path d="M101.623 230C101.52 230 101.434 229.965 101.364 229.895C101.294 229.825 101.259 229.739 101.259 229.636V224.897C101.259 224.79 101.294 224.703 101.364 224.638C101.434 224.568 101.52 224.533 101.623 224.533H104.787C104.894 224.533 104.981 224.566 105.046 224.631C105.111 224.692 105.144 224.773 105.144 224.876C105.144 224.974 105.111 225.053 105.046 225.114C104.981 225.175 104.894 225.205 104.787 225.205H101.987V226.906H103.996C104.103 226.906 104.19 226.939 104.255 227.004C104.32 227.065 104.353 227.144 104.353 227.242C104.353 227.34 104.32 227.422 104.255 227.487C104.19 227.548 104.103 227.578 103.996 227.578H101.987V229.636C101.987 229.739 101.952 229.825 101.882 229.895C101.812 229.965 101.726 230 101.623 230ZM107.804 230.028C107.417 230.028 107.071 229.946 106.768 229.783C106.469 229.615 106.234 229.386 106.061 229.097C105.893 228.803 105.809 228.467 105.809 228.089C105.809 227.706 105.888 227.37 106.047 227.081C106.21 226.787 106.434 226.558 106.719 226.395C107.004 226.227 107.33 226.143 107.699 226.143C108.063 226.143 108.376 226.225 108.637 226.388C108.898 226.547 109.097 226.768 109.232 227.053C109.372 227.333 109.442 227.657 109.442 228.026C109.442 228.115 109.412 228.189 109.351 228.25C109.29 228.306 109.213 228.334 109.12 228.334H106.299V227.774H109.099L108.812 227.97C108.807 227.737 108.761 227.529 108.672 227.347C108.583 227.16 108.457 227.013 108.294 226.906C108.131 226.799 107.932 226.745 107.699 226.745C107.433 226.745 107.204 226.803 107.013 226.92C106.826 227.037 106.684 227.198 106.586 227.403C106.488 227.604 106.439 227.832 106.439 228.089C106.439 228.346 106.497 228.574 106.614 228.775C106.731 228.976 106.892 229.134 107.097 229.251C107.302 229.368 107.538 229.426 107.804 229.426C107.949 229.426 108.096 229.4 108.245 229.349C108.399 229.293 108.523 229.23 108.616 229.16C108.686 229.109 108.761 229.083 108.84 229.083C108.924 229.078 108.996 229.102 109.057 229.153C109.136 229.223 109.178 229.3 109.183 229.384C109.188 229.468 109.15 229.54 109.071 229.601C108.912 229.727 108.714 229.83 108.476 229.909C108.243 229.988 108.019 230.028 107.804 230.028ZM112.278 230.028C111.914 230.028 111.587 229.944 111.298 229.776C111.008 229.603 110.78 229.37 110.612 229.076C110.444 228.782 110.357 228.451 110.353 228.082V224.89C110.353 224.783 110.385 224.696 110.451 224.631C110.521 224.566 110.607 224.533 110.71 224.533C110.817 224.533 110.903 224.566 110.969 224.631C111.034 224.696 111.067 224.783 111.067 224.89V226.78C111.23 226.584 111.426 226.43 111.655 226.318C111.888 226.201 112.142 226.143 112.418 226.143C112.758 226.143 113.064 226.229 113.335 226.402C113.605 226.57 113.818 226.801 113.972 227.095C114.13 227.384 114.21 227.713 114.21 228.082C114.21 228.451 114.123 228.782 113.951 229.076C113.783 229.37 113.554 229.603 113.265 229.776C112.975 229.944 112.646 230.028 112.278 230.028ZM112.278 229.398C112.516 229.398 112.728 229.342 112.915 229.23C113.101 229.113 113.248 228.955 113.356 228.754C113.468 228.553 113.524 228.329 113.524 228.082C113.524 227.83 113.468 227.606 113.356 227.41C113.248 227.214 113.101 227.06 112.915 226.948C112.728 226.831 112.516 226.773 112.278 226.773C112.044 226.773 111.832 226.831 111.641 226.948C111.454 227.06 111.307 227.214 111.2 227.41C111.092 227.606 111.039 227.83 111.039 228.082C111.039 228.329 111.092 228.553 111.2 228.754C111.307 228.955 111.454 229.113 111.641 229.23C111.832 229.342 112.044 229.398 112.278 229.398ZM115.618 227.606C115.618 227.326 115.685 227.076 115.821 226.857C115.961 226.633 116.147 226.456 116.381 226.325C116.614 226.194 116.871 226.129 117.151 226.129C117.431 226.129 117.638 226.176 117.774 226.269C117.914 226.358 117.967 226.465 117.935 226.591C117.921 226.656 117.893 226.708 117.851 226.745C117.813 226.778 117.769 226.799 117.718 226.808C117.666 226.817 117.61 226.815 117.55 226.801C117.251 226.74 116.983 226.736 116.745 226.787C116.507 226.838 116.318 226.934 116.178 227.074C116.042 227.214 115.975 227.391 115.975 227.606H115.618ZM115.625 230C115.513 230 115.426 229.972 115.366 229.916C115.305 229.855 115.275 229.767 115.275 229.65V226.521C115.275 226.409 115.305 226.323 115.366 226.262C115.426 226.201 115.513 226.171 115.625 226.171C115.741 226.171 115.828 226.201 115.884 226.262C115.944 226.318 115.975 226.404 115.975 226.521V229.65C115.975 229.762 115.944 229.848 115.884 229.909C115.828 229.97 115.741 230 115.625 230ZM120.289 230.035C119.967 230.035 119.677 229.967 119.421 229.832C119.169 229.692 118.968 229.489 118.819 229.223C118.674 228.957 118.602 228.63 118.602 228.243V226.521C118.602 226.418 118.634 226.334 118.7 226.269C118.77 226.199 118.856 226.164 118.959 226.164C119.061 226.164 119.145 226.199 119.211 226.269C119.281 226.334 119.316 226.418 119.316 226.521V228.243C119.316 228.504 119.365 228.721 119.463 228.894C119.561 229.062 119.694 229.188 119.862 229.272C120.03 229.351 120.219 229.391 120.429 229.391C120.629 229.391 120.807 229.351 120.961 229.272C121.119 229.193 121.245 229.085 121.339 228.95C121.432 228.815 121.479 228.663 121.479 228.495H121.92C121.92 228.784 121.847 229.046 121.703 229.279C121.563 229.512 121.369 229.697 121.122 229.832C120.879 229.967 120.601 230.035 120.289 230.035ZM121.836 230C121.733 230 121.647 229.967 121.577 229.902C121.511 229.832 121.479 229.746 121.479 229.643V226.521C121.479 226.414 121.511 226.327 121.577 226.262C121.647 226.197 121.733 226.164 121.836 226.164C121.943 226.164 122.029 226.197 122.095 226.262C122.16 226.327 122.193 226.414 122.193 226.521V229.643C122.193 229.746 122.16 229.832 122.095 229.902C122.029 229.967 121.943 230 121.836 230ZM125.046 230.028C124.706 230.028 124.4 229.944 124.129 229.776C123.859 229.603 123.644 229.372 123.485 229.083C123.331 228.789 123.254 228.458 123.254 228.089C123.254 227.72 123.338 227.389 123.506 227.095C123.679 226.801 123.91 226.57 124.199 226.402C124.493 226.229 124.822 226.143 125.186 226.143C125.55 226.143 125.877 226.229 126.166 226.402C126.456 226.57 126.684 226.801 126.852 227.095C127.025 227.389 127.111 227.72 127.111 228.089H126.838C126.838 228.458 126.759 228.789 126.6 229.083C126.446 229.372 126.234 229.603 125.963 229.776C125.693 229.944 125.387 230.028 125.046 230.028ZM125.186 229.398C125.424 229.398 125.637 229.342 125.823 229.23C126.01 229.113 126.157 228.957 126.264 228.761C126.372 228.56 126.425 228.336 126.425 228.089C126.425 227.837 126.372 227.613 126.264 227.417C126.157 227.216 126.01 227.06 125.823 226.948C125.637 226.831 125.424 226.773 125.186 226.773C124.953 226.773 124.741 226.831 124.549 226.948C124.363 227.06 124.213 227.216 124.101 227.417C123.994 227.613 123.94 227.837 123.94 228.089C123.94 228.336 123.994 228.56 124.101 228.761C124.213 228.957 124.363 229.113 124.549 229.23C124.741 229.342 124.953 229.398 125.186 229.398ZM126.754 230.007C126.652 230.007 126.565 229.974 126.495 229.909C126.43 229.839 126.397 229.753 126.397 229.65V228.579L126.53 227.837L127.111 228.089V229.65C127.111 229.753 127.076 229.839 127.006 229.909C126.941 229.974 126.857 230.007 126.754 230.007ZM128.517 227.606C128.517 227.326 128.585 227.076 128.72 226.857C128.86 226.633 129.047 226.456 129.28 226.325C129.513 226.194 129.77 226.129 130.05 226.129C130.33 226.129 130.538 226.176 130.673 226.269C130.813 226.358 130.867 226.465 130.834 226.591C130.82 226.656 130.792 226.708 130.75 226.745C130.713 226.778 130.668 226.799 130.617 226.808C130.566 226.817 130.51 226.815 130.449 226.801C130.15 226.74 129.882 226.736 129.644 226.787C129.406 226.838 129.217 226.934 129.077 227.074C128.942 227.214 128.874 227.391 128.874 227.606H128.517ZM128.524 230C128.412 230 128.326 229.972 128.265 229.916C128.204 229.855 128.174 229.767 128.174 229.65V226.521C128.174 226.409 128.204 226.323 128.265 226.262C128.326 226.201 128.412 226.171 128.524 226.171C128.641 226.171 128.727 226.201 128.783 226.262C128.844 226.318 128.874 226.404 128.874 226.521V229.65C128.874 229.762 128.844 229.848 128.783 229.909C128.727 229.97 128.641 230 128.524 230ZM132.264 231.68C132.218 231.68 132.162 231.666 132.096 231.638C131.891 231.545 131.835 231.398 131.928 231.197L134.063 226.374C134.157 226.178 134.304 226.122 134.504 226.206C134.714 226.295 134.773 226.442 134.679 226.647L132.537 231.463C132.481 231.608 132.39 231.68 132.264 231.68ZM133.09 229.846C133.002 229.883 132.918 229.888 132.838 229.86C132.764 229.827 132.703 229.767 132.656 229.678L131.053 226.633C131.007 226.544 131 226.46 131.032 226.381C131.07 226.297 131.133 226.236 131.221 226.199C131.31 226.162 131.394 226.159 131.473 226.192C131.553 226.22 131.613 226.278 131.655 226.367L133.188 229.412C133.235 229.501 133.251 229.587 133.237 229.671C133.228 229.75 133.179 229.809 133.09 229.846Z" fill="#1E1E1E"/>
<path d="M148.064 230C147.961 230 147.875 229.965 147.805 229.895C147.735 229.825 147.7 229.739 147.7 229.636V224.897C147.7 224.79 147.735 224.703 147.805 224.638C147.875 224.568 147.961 224.533 148.064 224.533C148.204 224.533 148.311 224.598 148.386 224.729L150.577 229.118H150.353L152.488 224.729C152.563 224.598 152.67 224.533 152.81 224.533C152.913 224.533 152.999 224.568 153.069 224.638C153.139 224.703 153.174 224.79 153.174 224.897V229.636C153.174 229.739 153.137 229.825 153.062 229.895C152.992 229.965 152.908 230 152.81 230C152.707 230 152.621 229.965 152.551 229.895C152.481 229.825 152.446 229.739 152.446 229.636V225.905L152.586 225.87L150.752 229.608C150.673 229.729 150.568 229.79 150.437 229.79C150.283 229.79 150.171 229.718 150.101 229.573L148.288 225.94L148.428 225.905V229.636C148.428 229.739 148.393 229.825 148.323 229.895C148.253 229.965 148.167 230 148.064 230ZM156.103 230.028C155.762 230.028 155.457 229.944 155.186 229.776C154.915 229.603 154.701 229.372 154.542 229.083C154.388 228.789 154.311 228.458 154.311 228.089C154.311 227.72 154.395 227.389 154.563 227.095C154.736 226.801 154.967 226.57 155.256 226.402C155.55 226.229 155.879 226.143 156.243 226.143C156.607 226.143 156.934 226.229 157.223 226.402C157.512 226.57 157.741 226.801 157.909 227.095C158.082 227.389 158.168 227.72 158.168 228.089H157.895C157.895 228.458 157.816 228.789 157.657 229.083C157.503 229.372 157.291 229.603 157.02 229.776C156.749 229.944 156.444 230.028 156.103 230.028ZM156.243 229.398C156.481 229.398 156.693 229.342 156.88 229.23C157.067 229.113 157.214 228.957 157.321 228.761C157.428 228.56 157.482 228.336 157.482 228.089C157.482 227.837 157.428 227.613 157.321 227.417C157.214 227.216 157.067 227.06 156.88 226.948C156.693 226.831 156.481 226.773 156.243 226.773C156.01 226.773 155.797 226.831 155.606 226.948C155.419 227.06 155.27 227.216 155.158 227.417C155.051 227.613 154.997 227.837 154.997 228.089C154.997 228.336 155.051 228.56 155.158 228.761C155.27 228.957 155.419 229.113 155.606 229.23C155.797 229.342 156.01 229.398 156.243 229.398ZM157.811 230.007C157.708 230.007 157.622 229.974 157.552 229.909C157.487 229.839 157.454 229.753 157.454 229.65V228.579L157.587 227.837L158.168 228.089V229.65C158.168 229.753 158.133 229.839 158.063 229.909C157.998 229.974 157.914 230.007 157.811 230.007ZM159.574 227.606C159.574 227.326 159.641 227.076 159.777 226.857C159.917 226.633 160.103 226.456 160.337 226.325C160.57 226.194 160.827 226.129 161.107 226.129C161.387 226.129 161.594 226.176 161.73 226.269C161.87 226.358 161.923 226.465 161.891 226.591C161.877 226.656 161.849 226.708 161.807 226.745C161.769 226.778 161.725 226.799 161.674 226.808C161.622 226.817 161.566 226.815 161.506 226.801C161.207 226.74 160.939 226.736 160.701 226.787C160.463 226.838 160.274 226.934 160.134 227.074C159.998 227.214 159.931 227.391 159.931 227.606H159.574ZM159.581 230C159.469 230 159.382 229.972 159.322 229.916C159.261 229.855 159.231 229.767 159.231 229.65V226.521C159.231 226.409 159.261 226.323 159.322 226.262C159.382 226.201 159.469 226.171 159.581 226.171C159.697 226.171 159.784 226.201 159.84 226.262C159.9 226.318 159.931 226.404 159.931 226.521V229.65C159.931 229.762 159.9 229.848 159.84 229.909C159.784 229.97 159.697 230 159.581 230ZM164.091 230.028C163.717 230.028 163.384 229.944 163.09 229.776C162.8 229.603 162.572 229.372 162.404 229.083C162.24 228.789 162.159 228.458 162.159 228.089C162.159 227.711 162.24 227.375 162.404 227.081C162.567 226.787 162.791 226.558 163.076 226.395C163.36 226.227 163.687 226.143 164.056 226.143C164.331 226.143 164.583 226.197 164.812 226.304C165.04 226.407 165.246 226.563 165.428 226.773C165.493 226.848 165.516 226.925 165.498 227.004C165.479 227.083 165.428 227.153 165.344 227.214C165.278 227.261 165.206 227.277 165.127 227.263C165.047 227.244 164.975 227.202 164.91 227.137C164.681 226.894 164.396 226.773 164.056 226.773C163.818 226.773 163.608 226.829 163.426 226.941C163.244 227.048 163.101 227.2 162.999 227.396C162.896 227.592 162.845 227.823 162.845 228.089C162.845 228.341 162.896 228.565 162.999 228.761C163.106 228.957 163.253 229.113 163.44 229.23C163.626 229.342 163.843 229.398 164.091 229.398C164.254 229.398 164.396 229.379 164.518 229.342C164.644 229.3 164.758 229.237 164.861 229.153C164.935 229.092 165.012 229.06 165.092 229.055C165.171 229.046 165.241 229.067 165.302 229.118C165.381 229.183 165.425 229.258 165.435 229.342C165.444 229.421 165.416 229.494 165.351 229.559C165.015 229.872 164.595 230.028 164.091 230.028ZM169.793 230.007C169.69 230.007 169.604 229.974 169.534 229.909C169.468 229.839 169.436 229.753 169.436 229.65V227.928C169.436 227.662 169.387 227.445 169.289 227.277C169.191 227.109 169.058 226.985 168.89 226.906C168.726 226.822 168.537 226.78 168.323 226.78C168.127 226.78 167.949 226.82 167.791 226.899C167.632 226.978 167.506 227.086 167.413 227.221C167.319 227.352 167.273 227.503 167.273 227.676H166.832C166.832 227.382 166.902 227.121 167.042 226.892C167.186 226.659 167.382 226.474 167.63 226.339C167.877 226.204 168.155 226.136 168.463 226.136C168.785 226.136 169.072 226.206 169.324 226.346C169.58 226.481 169.781 226.682 169.926 226.948C170.075 227.214 170.15 227.541 170.15 227.928V229.65C170.15 229.753 170.115 229.839 170.045 229.909C169.979 229.974 169.895 230.007 169.793 230.007ZM166.916 230.007C166.813 230.007 166.727 229.974 166.657 229.909C166.591 229.839 166.559 229.753 166.559 229.65V226.528C166.559 226.421 166.591 226.334 166.657 226.269C166.727 226.204 166.813 226.171 166.916 226.171C167.023 226.171 167.109 226.204 167.175 226.269C167.24 226.334 167.273 226.421 167.273 226.528V229.65C167.273 229.753 167.24 229.839 167.175 229.909C167.109 229.974 167.023 230.007 166.916 230.007ZM166.916 228.607C166.813 228.607 166.727 228.574 166.657 228.509C166.591 228.439 166.559 228.353 166.559 228.25V224.89C166.559 224.783 166.591 224.696 166.657 224.631C166.727 224.566 166.813 224.533 166.916 224.533C167.023 224.533 167.109 224.566 167.175 224.631C167.24 224.696 167.273 224.783 167.273 224.89V228.25C167.273 228.353 167.24 228.439 167.175 228.509C167.109 228.574 167.023 228.607 166.916 228.607Z" fill="#1E1E1E"/>
<path opacity="0.7" d="M23.184 95C22.834 95 22.5237 94.9277 22.253 94.783C21.9823 94.6337 21.77 94.433 21.616 94.181C21.462 93.9243 21.385 93.6373 21.385 93.32C21.385 93.2127 21.4153 93.1263 21.476 93.061C21.5413 92.991 21.6183 92.956 21.707 92.956C21.8003 92.956 21.8773 92.991 21.938 93.061C21.9987 93.1263 22.029 93.2127 22.029 93.32C22.029 93.5113 22.078 93.6887 22.176 93.852C22.274 94.0107 22.407 94.139 22.575 94.237C22.743 94.3303 22.932 94.377 23.142 94.377C23.45 94.377 23.6973 94.293 23.884 94.125C24.0753 93.9523 24.171 93.712 24.171 93.404C24.171 93.208 24.129 93.033 24.045 92.879C23.961 92.7203 23.8467 92.5943 23.702 92.501C23.5573 92.4077 23.394 92.361 23.212 92.361C23.1093 92.361 23.023 92.326 22.953 92.256C22.8877 92.186 22.855 92.0997 22.855 91.997C22.855 91.8943 22.8877 91.8103 22.953 91.745C23.023 91.675 23.1093 91.64 23.212 91.64C23.3427 91.64 23.4687 91.6073 23.59 91.542C23.7113 91.472 23.8117 91.381 23.891 91.269C23.9703 91.1523 24.01 91.0217 24.01 90.877C24.01 90.6717 23.9353 90.499 23.786 90.359C23.6367 90.219 23.4453 90.149 23.212 90.149C23.0347 90.149 22.8713 90.184 22.722 90.254C22.5773 90.324 22.4607 90.4173 22.372 90.534C22.288 90.6507 22.246 90.7813 22.246 90.926C22.246 91.0333 22.2157 91.1243 22.155 91.199C22.0943 91.269 22.0173 91.304 21.924 91.304C21.8353 91.304 21.7583 91.2713 21.693 91.206C21.6323 91.136 21.602 91.0497 21.602 90.947C21.602 90.6763 21.672 90.4337 21.812 90.219C21.952 90.0043 22.1433 89.8363 22.386 89.715C22.6287 89.589 22.8993 89.526 23.198 89.526C23.4733 89.526 23.7207 89.5867 23.94 89.708C24.164 89.8247 24.339 89.9857 24.465 90.191C24.5957 90.3917 24.661 90.6203 24.661 90.877C24.661 91.059 24.619 91.22 24.535 91.36C24.4557 91.5 24.353 91.6213 24.227 91.724C24.101 91.822 23.968 91.9037 23.828 91.969C24.0753 92.053 24.276 92.1673 24.43 92.312C24.584 92.452 24.696 92.6153 24.766 92.802C24.8407 92.9887 24.878 93.1917 24.878 93.411C24.878 93.7143 24.801 93.9873 24.647 94.23C24.493 94.468 24.2877 94.657 24.031 94.797C23.7743 94.9323 23.492 95 23.184 95ZM27.2134 95C26.8588 95 26.5554 94.8927 26.3034 94.678C26.0561 94.4587 25.8671 94.146 25.7364 93.74C25.6058 93.3293 25.5404 92.837 25.5404 92.263C25.5404 91.689 25.6058 91.199 25.7364 90.793C25.8671 90.3823 26.0561 90.0697 26.3034 89.855C26.5554 89.6357 26.8588 89.526 27.2134 89.526C27.5681 89.526 27.8691 89.638 28.1164 89.862C28.3684 90.0813 28.5598 90.3963 28.6904 90.807C28.8211 91.213 28.8864 91.6983 28.8864 92.263C28.8864 92.8277 28.8211 93.3153 28.6904 93.726C28.5598 94.132 28.3684 94.447 28.1164 94.671C27.8691 94.8903 27.5681 95 27.2134 95ZM27.2134 94.272C27.4281 94.272 27.6054 94.1857 27.7454 94.013C27.8854 93.8357 27.9904 93.5953 28.0604 93.292C28.1304 92.9887 28.1654 92.6457 28.1654 92.263C28.1654 91.8803 28.1304 91.5373 28.0604 91.234C27.9904 90.9307 27.8854 90.6903 27.7454 90.513C27.6054 90.3357 27.4281 90.247 27.2134 90.247C26.9988 90.247 26.8214 90.3357 26.6814 90.513C26.5414 90.6857 26.4364 90.9237 26.3664 91.227C26.2964 91.5303 26.2614 91.8757 26.2614 92.263C26.2614 92.6503 26.2964 92.9957 26.3664 93.299C26.4364 93.6023 26.5414 93.8403 26.6814 94.013C26.8261 94.1857 27.0034 94.272 27.2134 94.272ZM31.2603 95C30.9056 95 30.6023 94.8927 30.3503 94.678C30.103 94.4587 29.914 94.146 29.7833 93.74C29.6526 93.3293 29.5873 92.837 29.5873 92.263C29.5873 91.689 29.6526 91.199 29.7833 90.793C29.914 90.3823 30.103 90.0697 30.3503 89.855C30.6023 89.6357 30.9056 89.526 31.2603 89.526C31.615 89.526 31.916 89.638 32.1633 89.862C32.4153 90.0813 32.6066 90.3963 32.7373 90.807C32.868 91.213 32.9333 91.6983 32.9333 92.263C32.9333 92.8277 32.868 93.3153 32.7373 93.726C32.6066 94.132 32.4153 94.447 32.1633 94.671C31.916 94.8903 31.615 95 31.2603 95ZM31.2603 94.272C31.475 94.272 31.6523 94.1857 31.7923 94.013C31.9323 93.8357 32.0373 93.5953 32.1073 93.292C32.1773 92.9887 32.2123 92.6457 32.2123 92.263C32.2123 91.8803 32.1773 91.5373 32.1073 91.234C32.0373 90.9307 31.9323 90.6903 31.7923 90.513C31.6523 90.3357 31.475 90.247 31.2603 90.247C31.0456 90.247 30.8683 90.3357 30.7283 90.513C30.5883 90.6857 30.4833 90.9237 30.4133 91.227C30.3433 91.5303 30.3083 91.8757 30.3083 92.263C30.3083 92.6503 30.3433 92.9957 30.4133 93.299C30.4833 93.6023 30.5883 93.8403 30.7283 94.013C30.873 94.1857 31.0503 94.272 31.2603 94.272Z" fill="#292929"/>
<path opacity="0.7" d="M24.164 62C24.0707 62 23.9913 61.965 23.926 61.895C23.8607 61.825 23.828 61.741 23.828 61.643V60.761H21.497C21.3897 60.761 21.3057 60.7283 21.245 60.663C21.1843 60.5977 21.1493 60.523 21.14 60.439C21.1353 60.3503 21.1587 60.271 21.21 60.201L23.891 56.687C23.9283 56.6403 23.9703 56.603 24.017 56.575C24.0683 56.547 24.1243 56.533 24.185 56.533C24.283 56.533 24.3623 56.568 24.423 56.638C24.4837 56.708 24.514 56.7943 24.514 56.897V60.117H24.934C25.032 60.117 25.116 60.1403 25.186 60.187C25.256 60.2337 25.291 60.3177 25.291 60.439C25.291 60.5277 25.256 60.6047 25.186 60.67C25.116 60.7307 25.032 60.761 24.934 60.761H24.514V61.643C24.514 61.741 24.4813 61.825 24.416 61.895C24.3507 61.965 24.2667 62 24.164 62ZM21.917 60.313L21.728 60.117H23.828V57.233L24.045 57.513L21.917 60.313ZM27.5962 62C27.2416 62 26.9382 61.8927 26.6862 61.678C26.4389 61.4587 26.2499 61.146 26.1192 60.74C25.9886 60.3293 25.9232 59.837 25.9232 59.263C25.9232 58.689 25.9886 58.199 26.1192 57.793C26.2499 57.3823 26.4389 57.0697 26.6862 56.855C26.9382 56.6357 27.2416 56.526 27.5962 56.526C27.9509 56.526 28.2519 56.638 28.4992 56.862C28.7512 57.0813 28.9426 57.3963 29.0732 57.807C29.2039 58.213 29.2692 58.6983 29.2692 59.263C29.2692 59.8277 29.2039 60.3153 29.0732 60.726C28.9426 61.132 28.7512 61.447 28.4992 61.671C28.2519 61.8903 27.9509 62 27.5962 62ZM27.5962 61.272C27.8109 61.272 27.9882 61.1857 28.1282 61.013C28.2682 60.8357 28.3732 60.5953 28.4432 60.292C28.5132 59.9887 28.5482 59.6457 28.5482 59.263C28.5482 58.8803 28.5132 58.5373 28.4432 58.234C28.3732 57.9307 28.2682 57.6903 28.1282 57.513C27.9882 57.3357 27.8109 57.247 27.5962 57.247C27.3816 57.247 27.2042 57.3357 27.0642 57.513C26.9242 57.6857 26.8192 57.9237 26.7492 58.227C26.6792 58.5303 26.6442 58.8757 26.6442 59.263C26.6442 59.6503 26.6792 59.9957 26.7492 60.299C26.8192 60.6023 26.9242 60.8403 27.0642 61.013C27.2089 61.1857 27.3862 61.272 27.5962 61.272ZM31.6431 62C31.2885 62 30.9851 61.8927 30.7331 61.678C30.4858 61.4587 30.2968 61.146 30.1661 60.74C30.0355 60.3293 29.9701 59.837 29.9701 59.263C29.9701 58.689 30.0355 58.199 30.1661 57.793C30.2968 57.3823 30.4858 57.0697 30.7331 56.855C30.9851 56.6357 31.2885 56.526 31.6431 56.526C31.9978 56.526 32.2988 56.638 32.5461 56.862C32.7981 57.0813 32.9895 57.3963 33.1201 57.807C33.2508 58.213 33.3161 58.6983 33.3161 59.263C33.3161 59.8277 33.2508 60.3153 33.1201 60.726C32.9895 61.132 32.7981 61.447 32.5461 61.671C32.2988 61.8903 31.9978 62 31.6431 62ZM31.6431 61.272C31.8578 61.272 32.0351 61.1857 32.1751 61.013C32.3151 60.8357 32.4201 60.5953 32.4901 60.292C32.5601 59.9887 32.5951 59.6457 32.5951 59.263C32.5951 58.8803 32.5601 58.5373 32.4901 58.234C32.4201 57.9307 32.3151 57.6903 32.1751 57.513C32.0351 57.3357 31.8578 57.247 31.6431 57.247C31.4285 57.247 31.2511 57.3357 31.1111 57.513C30.9711 57.6857 30.8661 57.9237 30.7961 58.227C30.7261 58.5303 30.6911 58.8757 30.6911 59.263C30.6911 59.6503 30.7261 59.9957 30.7961 60.299C30.8661 60.6023 30.9711 60.8403 31.1111 61.013C31.2558 61.1857 31.4331 61.272 31.6431 61.272Z" fill="#292929"/>
<path opacity="0.7" d="M23.233 29C22.897 29 22.5937 28.923 22.323 28.769C22.057 28.6103 21.8447 28.3957 21.686 28.125C21.532 27.8543 21.455 27.551 21.455 27.215C21.455 27.1123 21.4877 27.0283 21.553 26.963C21.6183 26.893 21.7023 26.858 21.805 26.858C21.9077 26.858 21.994 26.893 22.064 26.963C22.134 27.0283 22.169 27.1123 22.169 27.215C22.169 27.4157 22.2157 27.5977 22.309 27.761C22.4023 27.9243 22.5283 28.0527 22.687 28.146C22.8503 28.2393 23.0323 28.286 23.233 28.286C23.4383 28.286 23.6203 28.2393 23.779 28.146C23.9423 28.0527 24.0707 27.9243 24.164 27.761C24.2573 27.5977 24.304 27.4157 24.304 27.215C24.304 27.0097 24.2573 26.8277 24.164 26.669C24.0707 26.5057 23.9423 26.3773 23.779 26.284C23.6203 26.1907 23.4383 26.144 23.233 26.144H22.064C21.9613 26.144 21.8773 26.1113 21.812 26.046C21.7467 25.976 21.714 25.8897 21.714 25.787V23.897C21.714 23.7943 21.7467 23.708 21.812 23.638C21.8773 23.568 21.9613 23.533 22.064 23.533H24.402C24.5 23.533 24.584 23.5703 24.654 23.645C24.724 23.715 24.759 23.799 24.759 23.897C24.759 23.9903 24.724 24.072 24.654 24.142C24.5887 24.212 24.5047 24.247 24.402 24.247H22.421V25.43H23.233C23.5737 25.43 23.877 25.5093 24.143 25.668C24.4137 25.822 24.626 26.0343 24.78 26.305C24.9387 26.571 25.018 26.8743 25.018 27.215C25.018 27.551 24.9387 27.8543 24.78 28.125C24.626 28.3957 24.4137 28.6103 24.143 28.769C23.877 28.923 23.5737 29 23.233 29ZM27.4253 29C27.0707 29 26.7673 28.8927 26.5153 28.678C26.268 28.4587 26.079 28.146 25.9483 27.74C25.8177 27.3293 25.7523 26.837 25.7523 26.263C25.7523 25.689 25.8177 25.199 25.9483 24.793C26.079 24.3823 26.268 24.0697 26.5153 23.855C26.7673 23.6357 27.0707 23.526 27.4253 23.526C27.78 23.526 28.081 23.638 28.3283 23.862C28.5803 24.0813 28.7717 24.3963 28.9023 24.807C29.033 25.213 29.0983 25.6983 29.0983 26.263C29.0983 26.8277 29.033 27.3153 28.9023 27.726C28.7717 28.132 28.5803 28.447 28.3283 28.671C28.081 28.8903 27.78 29 27.4253 29ZM27.4253 28.272C27.64 28.272 27.8173 28.1857 27.9573 28.013C28.0973 27.8357 28.2023 27.5953 28.2723 27.292C28.3423 26.9887 28.3773 26.6457 28.3773 26.263C28.3773 25.8803 28.3423 25.5373 28.2723 25.234C28.2023 24.9307 28.0973 24.6903 27.9573 24.513C27.8173 24.3357 27.64 24.247 27.4253 24.247C27.2107 24.247 27.0333 24.3357 26.8933 24.513C26.7533 24.6857 26.6483 24.9237 26.5783 25.227C26.5083 25.5303 26.4733 25.8757 26.4733 26.263C26.4733 26.6503 26.5083 26.9957 26.5783 27.299C26.6483 27.6023 26.7533 27.8403 26.8933 28.013C27.038 28.1857 27.2153 28.272 27.4253 28.272ZM31.4722 29C31.1176 29 30.8142 28.8927 30.5622 28.678C30.3149 28.4587 30.1259 28.146 29.9952 27.74C29.8646 27.3293 29.7992 26.837 29.7992 26.263C29.7992 25.689 29.8646 25.199 29.9952 24.793C30.1259 24.3823 30.3149 24.0697 30.5622 23.855C30.8142 23.6357 31.1176 23.526 31.4722 23.526C31.8269 23.526 32.1279 23.638 32.3752 23.862C32.6272 24.0813 32.8186 24.3963 32.9492 24.807C33.0799 25.213 33.1452 25.6983 33.1452 26.263C33.1452 26.8277 33.0799 27.3153 32.9492 27.726C32.8186 28.132 32.6272 28.447 32.3752 28.671C32.1279 28.8903 31.8269 29 31.4722 29ZM31.4722 28.272C31.6869 28.272 31.8642 28.1857 32.0042 28.013C32.1442 27.8357 32.2492 27.5953 32.3192 27.292C32.3892 26.9887 32.4242 26.6457 32.4242 26.263C32.4242 25.8803 32.3892 25.5373 32.3192 25.234C32.2492 24.9307 32.1442 24.6903 32.0042 24.513C31.8642 24.3357 31.6869 24.247 31.4722 24.247C31.2576 24.247 31.0802 24.3357 30.9402 24.513C30.8002 24.6857 30.6952 24.9237 30.6252 25.227C30.5552 25.5303 30.5202 25.8757 30.5202 26.263C30.5202 26.6503 30.5552 26.9957 30.6252 27.299C30.6952 27.6023 30.8002 27.8403 30.9402 28.013C31.0849 28.1857 31.2622 28.272 31.4722 28.272Z" fill="#292929"/>
</g>
<defs>
<filter id="filter0_d" x="3" y="3" width="317" height="246" filterUnits="userSpaceOnUse" color-interpolation-filters="sRGB">
<feFlood flood-opacity="0" result="BackgroundImageFix"/>
<feColorMatrix in="SourceAlpha" type="matrix" values="0 0 0 0 0 0 0 0 0 0 0 0 0 0 0 0 0 0 127 0"/>
<feOffset dy="3"/>
<feGaussianBlur stdDeviation="3"/>
<feColorMatrix type="matrix" values="0 0 0 0 0.423529 0 0 0 0 0.470588 0 0 0 0 0.870588 0 0 0 1 0"/>
<feBlend mode="normal" in2="BackgroundImageFix" result="effect1_dropShadow"/>
<feBlend mode="normal" in="SourceGraphic" in2="effect1_dropShadow" result="shape"/>
</filter>
<clipPath id="clip0">
<rect width="323" height="252" fill="white"/>
</clipPath>
</defs>
</svg>
