<svg width="300" height="103" viewBox="0 0 300 103" fill="none" xmlns="http://www.w3.org/2000/svg">
<g clip-path="url(#clip0)">
<g filter="url(#filter0_d)">
<rect width="300" height="103" rx="15" fill="white"/>
</g>
<path d="M230.291 45.9414C230.291 43.4805 231.177 41.4362 232.947 39.8086C234.718 38.168 236.932 37.3477 239.588 37.3477C242.101 37.3477 244.23 38.0964 245.975 39.5938C247.72 41.0911 248.592 42.9206 248.592 45.082C248.592 46.6445 248.162 48.1484 247.303 49.5938C246.444 51.0391 244.829 52.9857 242.459 55.4336L235.33 62.7969V62.875H249.061V66H230.467V63.5781L240.389 53.1289C242.277 51.1367 243.527 49.6263 244.139 48.5977C244.764 47.569 245.076 46.4688 245.076 45.2969C245.076 43.9427 244.529 42.7904 243.436 41.8398C242.355 40.8893 241.04 40.4141 239.49 40.4141C237.837 40.4141 236.457 40.9414 235.35 41.9961C234.243 43.0508 233.69 44.3659 233.69 45.9414V45.9609H230.291V45.9414ZM258.865 52.9922V50.0234H262.244C263.859 50.0234 265.181 49.5612 266.209 48.6367C267.238 47.6992 267.752 46.5143 267.752 45.082C267.752 43.6497 267.277 42.5104 266.326 41.6641C265.376 40.8177 264.028 40.3945 262.283 40.3945C260.669 40.3945 259.354 40.8242 258.338 41.6836C257.322 42.543 256.736 43.7148 256.58 45.1992H253.201C253.397 42.8034 254.321 40.8958 255.975 39.4766C257.641 38.0573 259.796 37.3477 262.44 37.3477C264.979 37.3477 267.088 38.0312 268.768 39.3984C270.447 40.7656 271.287 42.5039 271.287 44.6133C271.287 46.3711 270.766 47.849 269.725 49.0469C268.683 50.2448 267.277 51 265.506 51.3125V51.3906C267.641 51.5208 269.341 52.2044 270.604 53.4414C271.867 54.6654 272.498 56.2669 272.498 58.2461C272.498 59.8216 272.056 61.2409 271.17 62.5039C270.285 63.7669 269.087 64.7435 267.576 65.4336C266.066 66.1237 264.393 66.4688 262.557 66.4688C259.64 66.4688 257.29 65.7396 255.506 64.2812C253.722 62.8229 252.765 60.9089 252.635 58.5391H256.014C256.17 60.0104 256.828 61.1953 257.986 62.0938C259.145 62.9792 260.656 63.4219 262.518 63.4219C264.38 63.4219 265.91 62.9466 267.108 61.9961C268.319 61.0456 268.924 59.8346 268.924 58.3633C268.924 56.7096 268.338 55.401 267.166 54.4375C266.007 53.474 264.419 52.9922 262.401 52.9922H258.865Z" fill="#593636"/>
<path d="M34.0341 62H32.2763V47.9082H34.0341V62ZM36.5048 62V51.8438H38.1064V53.4648H38.1454C38.4384 52.8984 38.8583 52.459 39.4052 52.1465C39.9521 51.8275 40.6064 51.668 41.3681 51.668C42.4748 51.668 43.3375 52.0033 43.956 52.6738C44.5745 53.3379 44.8837 54.2493 44.8837 55.4082V62H43.1845V55.7109C43.1845 54.8841 42.9892 54.2559 42.5985 53.8262C42.2079 53.39 41.6252 53.1719 40.8505 53.1719C40.0497 53.1719 39.4084 53.4323 38.9267 53.9531C38.4449 54.474 38.204 55.1641 38.204 56.0234V62H36.5048ZM52.1005 62.1758C51.3713 62.1758 50.7203 62.0098 50.1474 61.6777C49.581 61.3457 49.1317 60.8802 48.7997 60.2812H48.7607V62H47.1396V47.9082H48.8388V53.543H48.8778C49.1968 52.957 49.6396 52.498 50.206 52.166C50.7789 51.834 51.4202 51.668 52.1298 51.668C53.4123 51.668 54.4475 52.1465 55.2353 53.1035C56.023 54.0605 56.4169 55.3333 56.4169 56.9219C56.4169 58.5169 56.023 59.793 55.2353 60.75C54.4475 61.7005 53.4026 62.1758 52.1005 62.1758ZM51.7685 53.1621C50.9026 53.1621 50.1962 53.5104 49.6493 54.207C49.1024 54.8971 48.829 55.8021 48.829 56.9219C48.829 58.0482 49.1024 58.9564 49.6493 59.6465C50.1962 60.3366 50.9026 60.6816 51.7685 60.6816C52.6669 60.6816 53.3765 60.3464 53.8974 59.6758C54.4182 58.9987 54.6786 58.0807 54.6786 56.9219C54.6786 55.7695 54.4182 54.8548 53.8974 54.1777C53.3765 53.5007 52.6669 53.1621 51.7685 53.1621ZM62.3544 62.1758C60.9351 62.1758 59.7958 61.7038 58.9364 60.7598C58.0771 59.8092 57.6474 58.5299 57.6474 56.9219C57.6474 55.3138 58.0771 54.0378 58.9364 53.0938C59.7958 52.1432 60.9351 51.668 62.3544 51.668C63.7672 51.668 64.9032 52.1432 65.7626 53.0938C66.622 54.0378 67.0517 55.3138 67.0517 56.9219C67.0517 58.5234 66.622 59.7995 65.7626 60.75C64.9032 61.7005 63.7672 62.1758 62.3544 62.1758ZM60.1767 59.6855C60.717 60.3496 61.4429 60.6816 62.3544 60.6816C63.2659 60.6816 63.9885 60.3529 64.5224 59.6953C65.0562 59.0312 65.3232 58.1068 65.3232 56.9219C65.3232 55.737 65.0562 54.8158 64.5224 54.1582C63.9885 53.4941 63.2659 53.1621 62.3544 53.1621C61.4429 53.1621 60.717 53.4941 60.1767 54.1582C59.6428 54.8223 59.3759 55.7435 59.3759 56.9219C59.3759 58.1003 59.6428 59.0215 60.1767 59.6855ZM72.1689 58.1328H72.1298L69.6786 62H67.7939L71.2509 56.9219L67.8524 51.8438H69.747L72.1884 55.6523H72.2274L74.6396 51.8438H76.5341L73.1064 56.8535L76.4853 62H74.6005L72.1689 58.1328Z" fill="#929292"/>
</g>
<defs>
<filter id="filter0_d" x="-10" y="-10" width="320" height="123" filterUnits="userSpaceOnUse" color-interpolation-filters="sRGB">
<feFlood flood-opacity="0" result="BackgroundImageFix"/>
<feColorMatrix in="SourceAlpha" type="matrix" values="0 0 0 0 0 0 0 0 0 0 0 0 0 0 0 0 0 0 127 0"/>
<feOffset/>
<feGaussianBlur stdDeviation="5"/>
<feColorMatrix type="matrix" values="0 0 0 0 0 0 0 0 0 0 0 0 0 0 0 0 0 0 0.05 0"/>
<feBlend mode="normal" in2="BackgroundImageFix" result="effect1_dropShadow"/>
<feBlend mode="normal" in="SourceGraphic" in2="effect1_dropShadow" result="shape"/>
</filter>
<clipPath id="clip0">
<rect width="300" height="103" fill="white"/>
</clipPath>
</defs>
</svg>
